<svg width="150" height="50" viewBox="0 0 150 50" fill="none" xmlns="http://www.w3.org/2000/svg">
<g clip-path="url(#clip0_860_5236)">
<path d="M0 45.3231C0 31.7772 0 18.2314 0 4.68561C0.0499972 4.63364 0.141665 4.59033 0.149998 4.52105C0.441649 3.13529 1.10827 1.96605 2.36653 1.19522C3.09982 0.744847 3.89979 0.398406 4.66641 0C51.5471 0 98.4278 0 145.309 0C145.492 0.0952711 145.667 0.216525 145.859 0.268491C148.4 0.987355 150.008 3.49905 150 5.92413C149.95 18.7684 149.975 31.6127 149.975 44.4483C149.975 47.419 147.175 50 144.292 50C98.0695 49.9913 51.8471 50 5.62469 49.9827C3.81645 49.9827 2.34154 49.2032 1.31659 47.7828C0.774958 47.0293 0.433309 46.1372 0 45.3144V45.3231ZM74.9875 48.978C97.8112 48.978 120.635 48.978 143.467 48.978C146.817 48.978 148.892 47.0206 148.892 43.7901C148.9 31.2662 148.9 18.7424 148.892 6.2186C148.892 2.97073 146.825 1.03066 143.467 1.03066C97.8445 1.03066 52.2221 1.03066 6.59963 1.03066C3.09149 1.03066 1.08328 2.97073 1.08328 6.38316C1.08328 18.7944 1.08328 31.2143 1.08328 43.6255C1.08328 47.0293 3.09983 48.978 6.59963 48.978C29.3984 48.978 52.1971 48.978 74.9958 48.978H74.9875Z" fill="#FBFBFB" stroke="#FBFBFB"/>
<path d="M30.0068 24.9696C30.0068 29.2655 30.0068 33.57 30.0068 37.8659C30.0068 39.8579 28.8735 40.9665 26.8237 40.9665C22.9405 40.9665 19.0491 40.9665 15.166 40.9665C13.1994 40.9665 12.0078 39.8146 12.0078 37.9005C12.0078 29.3001 12.0078 20.7084 12.0078 12.108C12.0078 10.168 13.1494 9.03337 15.1326 9.02471C19.0741 9.00739 23.0155 9.00739 26.957 9.02471C28.8652 9.02471 30.0068 10.1506 30.0068 11.9868C30.0068 16.3086 30.0068 20.6391 30.0068 24.961V24.9696ZM28.5569 35.614V14.2993H13.4911V35.614H28.5569ZM21.0323 39.6933C22.0073 39.6933 22.7655 38.9398 22.7489 38.0131C22.7322 37.1297 21.9656 36.3935 21.0406 36.3762C20.074 36.3589 19.3157 37.0864 19.3074 38.0391C19.3074 39.0005 20.0324 39.702 21.024 39.6933H21.0323ZM19.2657 12.2293C19.2991 12.2986 19.3324 12.3679 19.3657 12.4285C20.3823 12.4285 21.3906 12.4371 22.4072 12.4198C22.5239 12.4198 22.6322 12.2466 22.7406 12.1513C22.6072 12.0387 22.4822 11.8309 22.3489 11.8222C21.4656 11.7962 20.574 11.7876 19.6907 11.8222C19.5407 11.8222 19.4074 12.082 19.2657 12.2206V12.2293Z" fill="#FBFBFB"/>
<path d="M71.1725 43.7734H68.3477V26.7025H70.6808C70.7475 27.2742 70.8142 27.8458 70.8642 28.2442C71.7641 27.7072 72.6141 26.9624 73.614 26.6592C76.1806 25.8711 78.6637 27.0143 79.6887 29.4308C80.772 31.9684 80.7136 34.5321 79.1304 36.8965C77.8721 38.7846 75.4973 39.6161 73.2974 38.9405C72.5474 38.7067 71.8891 38.187 71.1642 37.7886V43.7647L71.1725 43.7734ZM71.0725 32.9038C71.0725 32.9038 71.1308 32.9038 71.1642 32.9125C71.1642 33.3455 71.1392 33.7699 71.1642 34.203C71.2642 35.5454 72.2641 36.7147 73.4724 36.9398C75.0139 37.2257 76.2972 36.68 76.9388 35.3462C77.7305 33.7093 77.7555 32.0204 76.9972 30.3575C76.4639 29.1796 75.2889 28.5213 74.0723 28.608C72.8224 28.6946 71.6975 29.5433 71.3642 30.7732C71.1725 31.4661 71.1558 32.1936 71.0642 32.9125L71.0725 32.9038Z" fill="#FBFBFB"/>
<path d="M57.3032 37.7792V43.7553H54.5117V26.7104H56.8366C56.9033 27.2821 56.9699 27.8537 57.0366 28.3907C57.6699 27.9057 58.2365 27.3254 58.9198 26.9703C61.2364 25.775 64.0445 26.5545 65.4778 28.7198C66.9944 31.0063 66.8777 34.8431 65.2195 37.043C63.8945 38.8012 61.6113 39.6153 59.4698 38.9571C58.7115 38.7233 58.0532 38.2036 57.3032 37.7879V37.7792ZM57.2366 32.9204C57.2366 32.9204 57.2949 32.9204 57.3199 32.929C57.3199 33.3361 57.3032 33.7345 57.3199 34.1416C57.3949 35.484 58.3615 36.6706 59.5698 36.9218C61.103 37.2422 62.4529 36.6706 63.1029 35.3108C63.8779 33.6999 63.8945 32.037 63.1779 30.4C62.6446 29.1875 61.4447 28.4946 60.2114 28.5985C58.9615 28.7025 57.8365 29.5599 57.5116 30.7811C57.3282 31.474 57.3199 32.2102 57.2282 32.9204H57.2366Z" fill="#FBFBFB"/>
<path d="M40.966 38.8445H38.1328C38.2078 38.55 38.2495 38.2988 38.3328 38.0563C40.0411 32.9377 41.7576 27.819 43.4325 22.6917C43.6325 22.0854 43.9075 21.8949 44.5325 21.9382C45.3824 21.9988 46.4657 21.687 47.0407 22.0854C47.6156 22.4838 47.699 23.5491 47.9573 24.3373C49.4905 28.919 51.0154 33.5093 52.5404 38.091C52.6153 38.3161 52.682 38.55 52.782 38.8618C51.8654 38.8618 51.0154 38.8878 50.1738 38.8358C49.9905 38.8271 49.7405 38.55 49.6738 38.3508C49.2155 37.0603 48.8239 35.7438 48.3489 34.462C48.2573 34.2195 47.8989 33.9164 47.649 33.9077C45.9907 33.8557 44.3241 33.8817 42.5492 33.8817C42.0243 35.5273 41.491 37.1729 40.9577 38.8358L40.966 38.8445ZM47.649 31.7771C46.874 29.3347 46.1157 26.9442 45.3241 24.4585C44.5575 26.9616 43.8325 29.3433 43.0825 31.7771H47.6406H47.649Z" fill="#FBFBFB"/>
<path d="M85.3359 38.0821C85.5693 37.2766 85.7693 36.5838 85.9942 35.8129C87.5108 36.6097 89.0691 36.9475 90.7356 36.7916C92.0772 36.6617 93.0689 35.9602 93.2938 34.9641C93.5688 33.7603 93.1189 32.7556 91.8689 32.0714C91.1023 31.647 90.269 31.3438 89.4607 30.9887C88.1775 30.4344 87.0109 29.7329 86.2359 28.5463C84.9026 26.4937 85.8109 23.5576 88.1941 22.4577C90.5857 21.349 93.0189 21.5656 95.527 22.475C95.2854 23.2458 95.0604 23.9387 94.9021 24.4497C93.4855 24.2938 92.1939 24.0599 90.894 24.0426C89.6607 24.0253 88.7358 24.7701 88.5108 25.6969C88.2691 26.6842 88.7024 27.6023 89.844 28.2172C90.7356 28.7022 91.6856 29.066 92.6105 29.4991C94.0855 30.1919 95.4271 31.0321 95.952 32.6603C96.7603 35.1547 95.5687 37.6577 93.0272 38.5585C90.4523 39.4765 87.8858 39.3206 85.3359 38.0821Z" fill="#FBFBFB"/>
<path d="M105.301 33.7259C105.301 29.5426 107.117 27.1868 110.125 26.5719C114.117 25.7577 117.425 28.2088 117.617 32.1582C117.725 34.3148 117.225 36.3068 115.45 37.7446C113.434 39.3815 111.084 39.6067 108.734 38.602C106.217 37.528 105.342 35.3715 105.301 33.7172V33.7259ZM114.942 32.7385C114.567 31.6819 114.367 30.6252 113.85 29.7505C112.742 27.897 110.117 27.9316 108.984 29.7678C107.801 31.6905 107.776 33.6999 108.917 35.6486C110.042 37.5714 112.642 37.6406 113.809 35.7439C114.35 34.8605 114.559 33.7778 114.942 32.7298V32.7385Z" fill="#FBFBFB"/>
<path d="M138.135 33.415H129.727C129.535 35.1991 130.785 36.7841 132.66 36.914C134.068 37.018 135.493 36.8101 137.035 36.7321C137.126 37.1132 137.26 37.7022 137.393 38.2738C134.402 39.9194 129.852 39.1832 128.085 36.8188C126.169 34.2551 126.644 29.812 129.11 27.7334C130.785 26.313 132.76 26.0704 134.802 26.7373C136.768 27.3783 137.676 28.9286 137.976 30.8167C138.11 31.6395 138.085 32.4969 138.135 33.415ZM135.427 31.4316C135.402 29.4656 134.235 28.2011 132.585 28.279C131.01 28.3569 129.66 29.838 129.744 31.4576C131.452 31.4576 133.168 31.4576 134.877 31.4576C135.035 31.4576 135.202 31.4403 135.418 31.4229L135.427 31.4316Z" fill="#FBFBFB"/>
<path d="M101.404 23.6532V26.6326H104.421V28.7026H101.487C101.487 31.0237 101.437 33.2409 101.512 35.4581C101.546 36.4195 102.179 36.8699 103.187 36.8786C103.537 36.8786 103.896 36.8352 104.279 36.8093C104.296 36.9998 104.321 37.1557 104.321 37.3116C104.321 37.788 104.321 38.273 104.321 38.9918C103.246 38.9918 102.162 39.1391 101.138 38.9659C99.7626 38.7407 98.9626 37.762 98.8376 36.4368C98.696 34.8952 98.7043 33.3362 98.6627 31.7772C98.6377 30.7899 98.6627 29.8025 98.6627 28.7199H96.8711V26.6759H98.6627C98.6627 26.0783 98.696 25.55 98.6543 25.0303C98.6127 24.5539 98.821 24.3634 99.2626 24.2595C99.9293 24.0949 100.588 23.887 101.412 23.6445L101.404 23.6532Z" fill="#FBFBFB"/>
<path d="M119.395 26.7543C119.445 26.7283 119.495 26.685 119.537 26.685C120.245 26.711 121.195 26.4858 121.603 26.8409C121.987 27.17 121.812 28.114 121.878 28.8069C123.636 26.607 124.22 26.2779 125.97 26.5464V28.9801C125.77 28.9975 125.561 29.0148 125.345 29.0235C123.595 29.0321 122.487 29.8549 122.303 31.5698C122.128 33.1634 122.187 34.783 122.162 36.394C122.145 37.1908 122.162 37.9963 122.162 38.8364H119.387C119.387 34.7917 119.387 30.773 119.387 26.7629L119.395 26.7543Z" fill="#FBFBFB"/>
<path d="M78.3202 17.2614C78.3786 18.4133 77.6703 18.1015 77.0703 18.0669V9.05078H78.4869V12.4892C79.0202 12.2294 79.4535 11.9089 79.9368 11.7963C81.3951 11.4759 82.6617 12.1601 83.0033 13.5718C83.2033 14.4033 83.22 15.3473 83.0283 16.1701C82.5783 18.0669 80.1118 19.1149 78.3119 17.2528L78.3202 17.2614ZM81.795 15.0182C81.82 13.7797 81.1534 12.8876 80.1785 12.8616C79.3035 12.8356 78.6369 13.4333 78.5119 14.334C78.3036 15.867 78.7535 16.915 79.6952 17.1055C79.7452 17.1142 79.8035 17.1142 79.8618 17.1228C81.0118 17.2354 81.77 16.4126 81.795 15.0269V15.0182Z" fill="#FBFBFB"/>
<path d="M45.5902 18.0401C44.6736 18.1786 44.0764 17.8322 43.7987 17.0007C43.482 16.0307 42.8237 15.5457 41.8238 15.5457C40.8238 15.5457 40.2155 15.9816 39.9989 16.8535C39.9822 16.9055 39.9822 16.9574 39.9655 17.0094C39.7211 17.812 39.1128 18.1584 38.1406 18.0487C38.2989 17.5637 38.4573 17.096 38.6156 16.6283C39.3489 14.4111 40.0905 12.1939 40.8072 9.97667C40.9405 9.55228 41.1488 9.31843 41.6238 9.4137C42.0904 9.50031 42.6987 9.12789 42.9487 9.87274C43.832 12.549 44.7236 15.2252 45.6152 17.9015C45.6319 17.9448 45.5985 18.0054 45.5819 18.0487L45.5902 18.0401ZM41.8488 10.7302C41.4405 12.0813 41.0821 13.2592 40.7155 14.4457H43.032C42.6404 13.2159 42.2737 12.064 41.8488 10.7302Z" fill="#FBFBFB"/>
<path d="M124.883 9.02539H126.25V12.5418C126.717 12.2733 127.05 12.0048 127.433 11.8662C128.925 11.3206 130.341 12.2473 130.441 13.9015C130.525 15.2613 130.458 16.6298 130.458 18.0588H129.008C129.008 17.1061 129.008 16.1534 129.008 15.192C129.008 14.8456 129.008 14.4905 128.983 14.144C128.908 13.2693 128.5 12.8795 127.7 12.8882C126.908 12.8882 126.342 13.3905 126.317 14.1874C126.283 15.3133 126.308 16.4392 126.3 17.5651C126.3 17.721 126.275 17.8769 126.25 18.0588H124.875V9.02539H124.883Z" fill="#FBFBFB"/>
<path d="M105.994 14.9324C105.994 16.9591 104.744 18.2496 102.777 18.2409C100.911 18.2409 99.6358 16.9158 99.6525 15.0104C99.6692 13.079 100.969 11.7538 102.861 11.7365C104.761 11.7192 105.985 12.975 105.994 14.9324ZM104.494 14.9497C104.494 13.6419 103.811 12.7412 102.827 12.7498C101.869 12.7585 101.177 13.6333 101.144 14.8805C101.111 16.2142 101.794 17.1756 102.786 17.2103C103.777 17.2449 104.494 16.3009 104.494 14.9497Z" fill="#FBFBFB"/>
<path d="M57.6039 13.8146C57.4456 12.654 56.7289 12.4375 54.6374 13.0698C54.579 12.9399 54.504 12.8099 54.4541 12.68C54.4041 12.5588 54.3707 12.4375 54.3207 12.2816C55.404 11.684 56.5123 11.5974 57.6372 11.9092C58.4622 12.143 58.9621 12.7493 58.9871 13.5721C59.0455 15.0445 59.0038 16.5168 59.0038 18.0585C58.5705 18.0585 57.9205 18.4829 57.7622 17.6861C57.1122 17.8766 56.479 18.1624 55.829 18.2231C54.904 18.3183 54.2457 17.8247 53.9708 17.0452C53.6708 16.2137 53.8791 15.235 54.6707 14.8453C55.554 14.4036 56.5623 14.1784 57.6039 13.8233V13.8146ZM57.5789 14.9059C56.9956 15.0445 56.4456 15.1051 55.954 15.3043C55.3124 15.5641 55.1457 16.1271 55.4124 16.6987C55.6873 17.2877 56.2373 17.3396 56.8206 17.1058C57.5706 16.8027 57.7539 16.3523 57.5872 14.8972L57.5789 14.9059Z" fill="#FBFBFB"/>
<path d="M94.1939 15.3221H90.0275C89.9692 16.8637 90.6275 17.1582 93.719 16.985C93.769 17.2275 93.8273 17.4873 93.8773 17.7212C92.844 18.5093 90.1191 18.4314 89.1692 17.1322C88.1776 15.7898 88.3776 13.4773 89.6192 12.4033C90.4441 11.6931 91.944 11.5112 92.894 11.9962C93.9189 12.5246 94.4606 13.815 94.2023 15.3134L94.1939 15.3221ZM92.844 14.3087C92.794 13.1568 92.3024 12.6458 91.3774 12.7064C90.5608 12.7584 90.0025 13.4253 90.0692 14.3087H92.844Z" fill="#FBFBFB"/>
<path d="M137.261 16.9325C137.344 17.2356 137.419 17.4955 137.478 17.7293C136.403 18.4915 133.828 18.4049 132.869 17.2789C131.87 16.1097 131.845 13.9531 132.894 12.7232C133.711 11.7705 135.228 11.4328 136.361 11.9524C137.494 12.4721 138.028 13.7539 137.719 15.3215H133.528C133.711 17.0191 134.594 17.3915 137.261 16.9325ZM133.536 14.2822H136.436C136.386 13.2602 135.994 12.7666 135.211 12.7146C134.303 12.6453 133.786 13.1217 133.536 14.2822Z" fill="#FBFBFB"/>
<path d="M73.0219 13.997C72.9136 12.6719 72.072 12.4121 70.1555 13.0703C69.6305 12.3428 69.6638 12.1349 70.5388 11.953C71.2554 11.8058 72.022 11.7365 72.747 11.8231C73.8052 11.9357 74.4552 12.7845 74.4802 13.9537C74.5135 15.2962 74.4802 16.63 74.4802 18.0417C73.9886 18.085 73.3469 18.4921 73.1886 17.6693C72.5886 17.8685 72.0387 18.1543 71.472 18.2149C70.4304 18.3362 69.6555 17.8425 69.3722 17.0111C69.0638 16.0843 69.4305 15.071 70.3971 14.6293C71.0304 14.3348 71.7637 14.2482 72.4553 14.0836C72.6386 14.0403 72.8303 14.023 73.0136 13.997H73.0219ZM73.0803 14.9411C72.5053 15.045 71.9804 15.0797 71.5054 15.2442C70.8471 15.4607 70.5721 16.1883 70.8471 16.7512C71.0971 17.2536 71.822 17.3835 72.4387 17.0284C73.2219 16.578 73.1719 15.8591 73.0803 14.9411Z" fill="#FBFBFB"/>
<path d="M113.435 18.0765H112.126C112.126 17.193 112.126 16.3096 112.126 15.4348C112.126 15.0884 112.143 14.7333 112.126 14.3869C112.068 13.3822 111.668 12.9058 110.885 12.8885C110.026 12.8625 109.468 13.3908 109.385 14.3695C109.335 15.0105 109.368 15.66 109.36 16.3009C109.36 16.8639 109.36 17.4182 109.36 18.0505H107.977V11.8838H109.102C109.143 12.1177 109.176 12.3429 109.201 12.4641C109.876 12.2303 110.535 11.8665 111.226 11.7799C112.301 11.6413 113.31 12.3082 113.401 13.3302C113.543 14.8892 113.435 16.4655 113.435 18.0765Z" fill="#FBFBFB"/>
<path d="M52.6546 11.9011C51.8797 13.8758 51.163 15.7899 50.3714 17.6693C50.2797 17.8859 49.8464 18.0764 49.5631 18.0851C49.2715 18.0937 48.7882 17.9378 48.7048 17.73C47.9299 15.8159 47.2216 13.8758 46.4883 11.9358C47.4438 11.7394 48.0632 12.0628 48.3465 12.9058C48.7465 14.101 49.1465 15.2962 49.5881 16.63C50.0214 15.3136 50.4214 14.1097 50.813 12.9058C51.0686 12.1205 51.6825 11.7856 52.6546 11.9011Z" fill="#FBFBFB"/>
<path d="M121.193 10.2977C121.227 10.826 121.252 11.2678 121.285 11.7961H122.768C122.785 12.1772 122.802 12.489 122.818 12.8874H121.285C121.285 14.0999 121.252 15.2172 121.293 16.3344C121.327 17.1226 121.977 17.1139 122.568 17.0966C122.893 18.0666 122.802 18.2052 121.81 18.2225C120.51 18.2485 119.86 17.6423 119.81 16.2998C119.777 15.1999 119.81 14.1086 119.81 12.948C119.502 12.9133 119.243 12.8874 118.91 12.8527V11.8913C119.16 11.8567 119.427 11.8134 119.752 11.7614C119.777 11.441 119.81 11.1119 119.843 10.6961C120.252 10.5749 120.685 10.445 121.185 10.2891L121.193 10.2977Z" fill="#FBFBFB"/>
<path d="M67.1059 18.0761H65.7227V9.02539H67.1059V18.0761Z" fill="#FBFBFB"/>
<path d="M86.5786 18.0761H85.1953V9.02539H86.5786V18.0761Z" fill="#FBFBFB"/>
<path d="M63.0947 18.0765H61.7031V11.8232C62.0031 11.8232 62.3114 11.7626 62.5781 11.8406C62.7781 11.8925 63.0697 12.1264 63.0697 12.2823C63.1031 14.179 63.0947 16.0758 63.0947 18.0765Z" fill="#FBFBFB"/>
<path d="M62.1886 10.9389C61.9553 10.6444 61.5887 10.3672 61.522 10.0381C61.4137 9.51845 61.8053 9.12004 62.3386 9.21532C62.6719 9.27594 63.1469 9.66569 63.1719 9.93418C63.1969 10.246 62.7969 10.5924 62.5803 10.9215C62.4553 10.9215 62.3219 10.9215 62.197 10.9302L62.1886 10.9389Z" fill="#FBFBFB"/>
</g>
<defs>
<clipPath id="clip0_860_5236">
<rect width="150" height="50" fill="white"/>
</clipPath>
</defs>
</svg>
