<svg width="294" height="294" viewBox="0 0 294 294" fill="none" xmlns="http://www.w3.org/2000/svg">
<circle cx="147" cy="147" r="147" fill="url(#paint0_linear_1944_28137)"/>
<path d="M76 130.406V238.24C125.69 254.167 147.669 238.24 147.669 238.24C147.669 238.24 176.57 254.167 215.855 237.02V151.259" stroke="white" stroke-width="2" stroke-miterlimit="10" stroke-linecap="round"/>
<path d="M215.853 137.749C216.486 137.749 216.999 137.202 216.999 136.529C216.999 135.855 216.486 135.309 215.853 135.309C215.22 135.309 214.707 135.855 214.707 136.529C214.707 137.202 215.22 137.749 215.853 137.749Z" stroke="white" stroke-width="2" stroke-miterlimit="10" stroke-linecap="round"/>
<path d="M144.79 167.953C143.577 148.727 128.924 132.777 109.978 130.021L91.4824 127.332L109.978 124.644C128.924 121.887 143.577 105.915 144.79 86.7111L147.195 48.7559L149.6 86.7111C150.813 105.937 165.466 121.887 184.412 124.644L202.908 127.332L184.412 130.021C165.466 132.777 150.813 148.75 149.6 167.953L147.195 205.909L144.79 167.953Z" fill="url(#paint1_radial_1944_28137)"/>
<path d="M147.196 66.4701L148.477 86.7806C149.735 106.526 164.77 122.928 184.255 125.775L195.087 127.357L184.255 128.938C164.77 131.785 149.735 148.187 148.477 167.933L147.196 188.243L145.915 167.933C144.656 148.187 129.621 131.785 110.136 128.938L99.3039 127.357L110.136 125.775C129.621 122.928 144.656 106.526 145.915 86.7806L147.196 66.4701ZM147.196 31L143.667 86.6225C142.476 105.419 128.34 120.805 109.799 123.516L83.6621 127.334L109.799 131.152C128.34 133.863 142.454 149.249 143.667 168.045L147.196 223.668L150.724 168.045C151.915 149.249 166.051 133.863 184.592 131.152L210.729 127.334L184.592 123.516C166.051 120.805 151.938 105.419 150.724 86.6225L147.196 31Z" fill="white"/>
<defs>
<linearGradient id="paint0_linear_1944_28137" x1="147" y1="-9.32123e-07" x2="114.428" y2="306.173" gradientUnits="userSpaceOnUse">
<stop/>
<stop offset="0.6" stop-color="#273166"/>
<stop offset="1"/>
</linearGradient>
<radialGradient id="paint1_radial_1944_28137" cx="0" cy="0" r="1" gradientUnits="userSpaceOnUse" gradientTransform="translate(147.195 127.332) scale(67.8934 68.2516)">
<stop stop-color="#FEEDB6"/>
<stop offset="0.61" stop-color="white"/>
</radialGradient>
</defs>
</svg>
