<svg width="45" height="62" viewBox="0 0 45 62" fill="none" xmlns="http://www.w3.org/2000/svg">
<rect width="45" height="62" fill="black"/>
<path d="M4 28.5703V56.3082C16.849 60.4052 22.5326 56.3082 22.5326 56.3082C22.5326 56.3082 30.0061 60.4052 40.1644 55.9944V33.9342" stroke="white" stroke-miterlimit="10" stroke-linecap="round"/>
<path d="M40.1891 31.4518C40.6366 31.4518 40.9994 31.0891 40.9994 30.6416C40.9994 30.1941 40.6366 29.8314 40.1891 29.8314C39.7417 29.8314 39.3789 30.1941 39.3789 30.6416C39.3789 31.0891 39.7417 31.4518 40.1891 31.4518Z" fill="white"/>
<path d="M21.7886 38.2288C21.4748 33.2832 17.6857 29.1804 12.7867 28.4714L8.00391 27.7798L12.7867 27.0883C17.6857 26.3793 21.4748 22.2706 21.7886 17.3309L22.4104 7.56772L23.0322 17.3309C23.346 22.2764 27.1351 26.3793 32.0341 27.0883L36.8169 27.7798L32.0341 28.4714C27.1351 29.1804 23.346 33.289 23.0322 38.2288L22.4104 47.9919L21.7886 38.2288Z" fill="url(#paint0_radial_1736_959)"/>
<path d="M22.4113 12.1239L22.7426 17.3484C23.068 22.4276 26.9558 26.6467 31.9943 27.3789L34.7954 27.7857L31.9943 28.1925C26.9558 28.9247 23.068 33.1438 22.7426 38.223L22.4113 43.4475L22.08 38.223C21.7546 33.1438 17.8668 28.9247 12.8283 28.1925L10.0272 27.7857L12.8283 27.3789C17.8668 26.6467 21.7546 22.4276 22.08 17.3484L22.4113 12.1239ZM22.4113 3L21.4989 17.3077C21.1909 22.1428 17.5355 26.1004 12.7411 26.7978L5.98242 27.7799L12.7411 28.762C17.5355 29.4594 21.1851 33.417 21.4989 38.2521L22.4113 52.5598L23.3237 38.2521C23.6317 33.417 27.2871 29.4594 32.0815 28.762L38.8402 27.7799L32.0815 26.7978C27.2871 26.1004 23.6375 22.1428 23.3237 17.3077L22.4113 3Z" fill="white"/>
<defs>
<radialGradient id="paint0_radial_1736_959" cx="0" cy="0" r="1" gradientUnits="userSpaceOnUse" gradientTransform="translate(22.4104 27.7798) scale(17.5563 17.5563)">
<stop stop-color="#FEEDB6"/>
<stop offset="0.61" stop-color="white"/>
</radialGradient>
</defs>
</svg>
