<svg width="150" height="50" viewBox="0 0 150 50" fill="none" xmlns="http://www.w3.org/2000/svg">
<g clip-path="url(#clip0_860_5208)">
<path d="M6.1419 0H143.848C143.901 0.139543 144.025 0.148264 144.149 0.174429C147.591 0.950637 149.981 3.84615 149.99 7.29112C149.999 19.1174 150.007 30.9349 149.99 42.7612C149.99 46.7643 146.662 50 142.582 50C97.527 50 52.4716 50 7.40745 50C4.2303 50 1.4514 48.0202 0.39825 45.0637C0.29205 44.7584 0.3186 44.3747 0 44.1566V5.85208C0.3186 5.63405 0.2832 5.25031 0.39825 4.94505C1.07085 3.13972 2.23905 1.73557 3.97365 0.845979C4.66395 0.497122 5.4162 0.279086 6.1419 0ZM74.9506 48.2557C97.288 48.2557 119.634 48.2557 141.972 48.2557C145.883 48.2557 148.237 45.9358 148.237 42.0809C148.237 30.6297 148.237 19.1872 148.237 7.73591C148.237 4.13396 145.821 1.75301 142.166 1.75301C97.3854 1.75301 52.6132 1.75301 7.83225 1.75301C4.1772 1.75301 1.76115 4.13396 1.76115 7.73591C1.76115 19.2482 1.76115 30.7605 1.76115 42.2641C1.76115 42.9618 1.8408 43.6421 2.0532 44.3049C2.87625 46.8428 4.9914 48.247 8.02695 48.247C30.3378 48.247 52.6398 48.247 74.9506 48.247V48.2557Z" fill="#FBFBFB"/>
<path d="M11.1254 26.7481C11.1254 22.3438 11.1254 17.9482 11.1254 13.5439C11.1254 13.134 11.1166 12.7241 11.1785 12.3229C11.2405 11.9479 11.3909 11.538 11.7626 11.3984C12.1786 11.2327 12.3467 11.6949 12.568 11.913C17.4178 16.797 22.241 21.6984 27.0997 26.565C27.5953 27.0621 27.5953 27.3412 27.0997 27.8383C22.4003 32.4694 17.7275 37.1267 13.0547 41.7665C12.2671 42.5514 11.6122 42.4119 11.2582 41.3391C11.1343 40.9641 11.1431 40.5367 11.1431 40.1268C11.1431 35.6615 11.1431 31.1961 11.1431 26.7394L11.1254 26.7481Z" fill="#FBFBFB"/>
<path d="M56.718 26.4164C57.5853 26.4164 58.4526 26.4862 59.3022 26.399C60.0987 26.3118 60.1961 26.7129 60.2315 27.306C60.4439 30.6027 58.3553 33.4023 55.0719 34.2221C51.2664 35.164 47.3636 33.1755 46.0715 29.6346C44.6997 25.8757 46.3458 21.7853 49.8947 20.1195C52.4966 18.8985 55.9923 19.3695 57.8951 21.1487C58.2933 21.5237 58.3464 21.8289 57.8862 22.0906C57.5145 22.2999 57.4437 23.1895 56.6561 22.5354C53.4878 19.8841 48.6822 21.4278 47.7441 25.4222C47.222 27.6287 47.6114 29.6957 49.4522 31.2655C51.1779 32.7395 53.1692 33.0273 55.2755 32.2423C56.8242 31.6667 57.8774 30.5853 58.2137 28.9195C58.3287 28.3439 58.2491 28.1258 57.5942 28.1433C56.3198 28.1869 55.0365 28.1171 53.7533 28.1694C52.9391 28.2043 53.0984 27.6985 53.0984 27.245C53.0984 26.8176 52.9833 26.3554 53.7267 26.399C54.7179 26.4513 55.7091 26.4164 56.7003 26.4164H56.718Z" fill="#FBFBFB"/>
<path d="M13.044 10.9981C13.5308 10.9109 13.8582 11.2074 14.2034 11.3993C20.2037 14.7309 26.1863 18.0886 32.1954 21.4028C32.9831 21.8388 32.93 22.1092 32.337 22.6587C31.1334 23.7837 29.9741 24.9611 28.8147 26.1298C28.5138 26.435 28.2837 26.6095 27.8855 26.2083C22.9737 21.2196 18.0531 16.2397 13.1414 11.251C13.0883 11.1987 13.0794 11.094 13.0352 10.9981H13.044Z" fill="#FBFBFB"/>
<path d="M90.6058 32.8195C89.8358 33.6131 89.1101 34.1626 88.172 34.337C86.1985 34.712 84.6497 34.023 83.4992 32.4532C81.9151 30.3164 82.2248 27.0023 84.1541 25.1882C85.9684 23.4875 88.2251 23.5573 90.5438 25.4324C90.7916 25.0312 90.2695 24.1591 91.3846 24.2463C92.2165 24.3073 92.4466 24.473 92.4289 25.3016C92.3669 28.1012 92.4289 30.9007 92.3935 33.7003C92.3492 37.1889 89.8004 39.2472 86.287 38.6628C84.8267 38.4186 83.8355 37.529 83.101 36.308C82.9417 36.0377 82.9063 35.8371 83.2426 35.7237C83.8975 35.4969 84.4816 34.8864 85.1188 35.9505C85.8002 37.0842 87.0746 37.1976 88.2871 36.936C89.4376 36.6918 90.1633 35.9243 90.473 34.7905C90.6323 34.2062 90.6412 33.6131 90.6058 32.8107V32.8195ZM87.5171 32.7061C89.3225 32.7061 90.6146 31.267 90.6323 29.2437C90.65 27.2116 89.296 25.6679 87.4994 25.6679C85.756 25.6679 84.4019 27.1854 84.3754 29.1652C84.3488 31.206 85.6852 32.7148 87.5171 32.7061Z" fill="#FBFBFB"/>
<path d="M15.0078 41.2689C19.2558 36.9954 23.4861 32.7567 27.681 28.492C28.2297 27.9338 28.5483 27.9861 29.0439 28.5181C29.9643 29.5211 30.929 30.4805 31.9113 31.4311C32.3538 31.8584 32.4689 32.0939 31.814 32.4515C26.504 35.3209 21.2117 38.2251 15.9105 41.1206C15.6627 41.2602 15.4149 41.4171 15.0167 41.2689H15.0078Z" fill="#FBFBFB"/>
<path d="M40.4524 26.8265C40.417 27.3672 40.1604 27.7946 39.6913 28.0649C37.7001 29.1813 35.7 30.2802 33.7087 31.3965C33.3547 31.5971 33.1158 31.4837 32.868 31.2308C31.6998 30.036 30.5227 28.8324 29.3368 27.6463C29.0536 27.3585 29.0448 27.1492 29.3368 26.8701C30.7351 25.5008 32.1334 24.1141 33.514 22.7274C33.8326 22.4047 34.107 22.4745 34.4433 22.6664C36.1248 23.617 37.8151 24.5589 39.5055 25.5095C40.0276 25.8061 40.4082 26.2073 40.4524 26.8352V26.8265Z" fill="#FBFBFB"/>
<path d="M112.164 26.9396C112.164 24.8028 112.191 22.6661 112.147 20.538C112.138 19.9101 112.324 19.7357 112.952 19.7531C114.386 19.7967 115.828 19.7357 117.262 19.7793C119.811 19.8578 121.616 21.6806 121.59 24.1051C121.563 26.4773 119.66 28.274 117.111 28.3001C116.439 28.3001 115.757 28.3699 115.102 28.2827C114.173 28.1606 114.005 28.5618 114.04 29.3729C114.102 30.716 114.005 32.0765 114.076 33.4196C114.12 34.2394 113.625 34.1522 113.111 34.1348C112.616 34.126 112.111 34.283 112.138 33.4283C112.2 31.2654 112.155 29.0938 112.155 26.9309L112.164 26.9396ZM116.014 21.5323C115.518 21.5323 115.102 21.5497 114.687 21.5323C114.262 21.5061 114.04 21.6021 114.049 22.0905C114.076 23.4074 114.067 24.7243 114.049 26.0326C114.049 26.3901 114.173 26.5471 114.545 26.5297C115.563 26.4948 116.589 26.5471 117.598 26.4425C118.74 26.3291 119.589 25.3087 119.651 24.1923C119.713 23.0324 118.996 22.012 117.908 21.6718C117.253 21.4625 116.58 21.5585 115.996 21.5323H116.014Z" fill="#FBFBFB"/>
<path d="M102.862 29.5742C101.774 29.5742 100.685 29.6003 99.6055 29.5742C99.048 29.5567 98.9595 29.7748 99.0657 30.2544C99.34 31.4667 100.075 32.2778 101.269 32.6267C102.553 33.0017 103.747 32.6005 104.482 31.5452C105.146 30.612 105.685 31.4842 106.163 31.6848C106.721 31.9202 106.137 32.3301 105.969 32.5656C104.694 34.3099 102.907 34.7024 100.871 34.3186C99.0745 33.9872 97.5435 32.3737 97.1983 30.5074C96.9063 28.9113 97.0833 27.3851 98.0479 26.0071C99.3312 24.1669 101.544 23.4866 103.712 24.2541C105.579 24.9169 106.898 27.0101 106.783 29.0334C106.756 29.5306 106.526 29.5829 106.119 29.5829C105.031 29.5742 103.951 29.5829 102.862 29.5829V29.5742ZM99.1807 27.9781C100.818 27.9781 102.438 27.9607 104.057 27.9869C104.783 27.9956 104.783 27.7165 104.526 27.1932C104.013 26.1466 102.969 25.571 101.694 25.667C100.446 25.7629 99.5524 26.5565 99.1807 27.9694V27.9781Z" fill="#FBFBFB"/>
<path d="M132.651 28.1796C132.696 27.0284 132.244 26.287 131.28 25.8946C130.209 25.4498 128.925 25.7027 128.182 26.5051C127.775 26.9411 126.642 26.8888 126.262 26.4266C126.058 26.1737 126.279 26.0167 126.377 25.8422C127.2 24.4294 129.182 23.6706 131.085 24.0369C132.996 24.4032 134.262 25.6242 134.448 27.4034C134.66 29.4704 134.492 31.5548 134.536 33.6218C134.554 34.398 133.952 34.1189 133.581 34.1276C133.235 34.1276 132.669 34.3805 132.713 33.6479C132.731 33.4386 132.713 33.2206 132.713 32.8019C131.51 34.2846 130.076 34.6596 128.421 34.3456C127.049 34.084 125.978 33.0374 125.784 31.799C125.536 30.2204 126.093 29.0604 127.465 28.3104C128.81 27.5778 130.501 27.5255 132.642 28.1796H132.651ZM130.598 29.2523C129.828 29.2523 129.288 29.3395 128.802 29.5837C128.058 29.9588 127.598 30.5431 127.731 31.3978C127.863 32.2438 128.527 32.5577 129.297 32.6711C130.607 32.863 131.598 32.3135 132.306 31.267C133.058 30.1506 132.846 29.6884 131.51 29.3919C131.138 29.3134 130.757 29.2785 130.598 29.2523Z" fill="#FBFBFB"/>
<path d="M81.8878 29.2171C81.8878 32.2522 79.755 34.4413 76.8168 34.45C73.8609 34.4587 71.6838 32.1911 71.7192 29.1386C71.7546 26.1123 73.8874 23.9581 76.8433 23.9668C79.7815 23.9755 81.8878 26.1733 81.879 29.2171H81.8878ZM80.0205 29.1822C80.0028 27.185 78.6045 25.6588 76.7991 25.6675C74.9937 25.6762 73.5954 27.2286 73.6042 29.2171C73.6042 31.2231 74.9848 32.7144 76.8345 32.7057C78.6753 32.7057 80.0382 31.1882 80.0205 29.1822Z" fill="#FBFBFB"/>
<path d="M71.1169 29.225C71.1081 32.2688 68.9929 34.4492 66.0547 34.4579C63.1342 34.4579 60.966 32.2426 60.9571 29.2337C60.9394 26.1812 63.1165 23.9573 66.099 23.9747C69.046 23.9834 71.1346 26.1725 71.1258 29.225H71.1169ZM69.2407 29.1727C69.223 27.1668 67.8247 25.6492 66.0105 25.6754C64.2051 25.6928 62.8156 27.254 62.8333 29.2337C62.851 31.2397 64.2316 32.7223 66.0724 32.7049C67.9132 32.6874 69.2584 31.1961 69.2407 29.1727Z" fill="#FBFBFB"/>
<path d="M139.828 31.328C140.66 29.2698 141.395 27.4732 142.121 25.6678C142.54 24.6271 143.392 24.2084 144.678 24.4119C144.094 25.7463 143.519 27.072 142.944 28.3889C141.581 31.5025 140.227 34.6073 138.864 37.7209C138.581 38.3662 137.527 38.7587 136.908 38.4535C136.536 38.2703 136.802 38.0348 136.89 37.8342C137.448 36.6045 138.005 35.3661 138.598 34.1538C138.828 33.6915 138.828 33.2991 138.616 32.8281C137.448 30.2466 136.333 27.6476 135.156 25.0748C134.872 24.4468 134.97 24.3073 135.678 24.2724C136.563 24.2288 137.023 24.473 137.342 25.3451C138.05 27.2813 138.908 29.1651 139.811 31.328H139.828Z" fill="#FBFBFB"/>
<path d="M124.662 26.9937C124.662 29.1305 124.626 31.2585 124.679 33.3953C124.697 34.1628 124.334 34.1715 123.759 34.154C123.201 34.1366 122.741 34.2238 122.75 33.3691C122.794 29.1043 122.794 24.8395 122.75 20.5748C122.75 19.7462 123.148 19.7811 123.741 19.7637C124.387 19.7375 124.706 19.8247 124.679 20.6009C124.617 22.729 124.662 24.8657 124.662 27.0025V26.9937Z" fill="#FBFBFB"/>
<path d="M96.0221 26.9924C96.0221 29.1291 95.9867 31.2659 96.0398 33.4026C96.0575 34.1788 95.677 34.1701 95.1106 34.1527C94.5619 34.1352 94.0929 34.2399 94.1017 33.3765C94.146 29.103 94.146 24.8382 94.1017 20.5647C94.0929 19.7274 94.5088 19.7797 95.0929 19.7623C95.7212 19.7448 96.0664 19.7972 96.0487 20.5908C95.9867 22.7276 96.0221 24.8643 96.0221 27.0011V26.9924Z" fill="#FBFBFB"/>
<path d="M96.1807 13.2121C96.1807 12.3574 96.1895 11.712 96.1807 11.0753C96.1718 10.7526 96.1895 10.5346 96.6232 10.552C97.0303 10.5695 96.9595 10.8311 96.9595 11.0753C96.9595 12.0434 96.9595 13.0202 96.9595 13.9883C96.9595 14.2151 97.0922 14.529 96.7028 14.5901C96.4019 14.6424 96.1718 14.5901 95.9771 14.2848C95.4992 13.5173 94.9682 12.7673 94.3576 11.8603C94.3576 12.6975 94.3576 13.3865 94.3576 14.0668C94.3576 14.3197 94.4195 14.5814 94.0213 14.6075C93.6142 14.625 93.5699 14.3982 93.5699 14.0668C93.5876 13.0987 93.5699 12.1219 93.5876 11.1538C93.5876 10.9271 93.4549 10.6044 93.8531 10.5695C94.154 10.5433 94.4638 10.4736 94.685 10.8486C95.1187 11.5986 95.6054 12.3138 96.1807 13.2121Z" fill="#FBFBFB"/>
<path d="M51.2752 11.8616C51.2752 12.7861 51.2752 13.4664 51.2752 14.1554C51.2752 14.4606 51.2044 14.6263 50.8504 14.6089C50.5318 14.5914 50.5053 14.4083 50.5053 14.1641C50.5053 13.1001 50.5053 12.0273 50.5053 10.9633C50.5053 10.7802 50.4699 10.5621 50.7619 10.5621C51.0717 10.5621 51.3814 10.4924 51.5938 10.8499C52.0009 11.5389 52.4434 12.2105 53.0541 12.8297C53.0541 12.289 53.0541 11.7395 53.0541 11.1988C53.0541 10.8936 52.939 10.5447 53.4789 10.5621C53.9568 10.5796 53.8329 10.8936 53.8329 11.1639C53.8329 12.1058 53.8329 13.0477 53.8329 13.9897C53.8329 14.2251 53.9656 14.5217 53.5851 14.6002C53.2753 14.6612 53.0452 14.5653 52.8682 14.2775C52.3992 13.5361 51.8947 12.8123 51.2664 11.8704L51.2752 11.8616Z" fill="#FBFBFB"/>
<path d="M92.7464 12.5322C92.7464 13.762 91.8702 14.7039 90.7286 14.7213C89.5869 14.7388 88.7373 13.8579 88.7462 12.6543C88.7462 11.4333 89.6312 10.474 90.764 10.4478C91.8791 10.4216 92.7552 11.3374 92.7552 12.541L92.7464 12.5322ZM91.8171 12.8113C91.8437 11.8084 91.3481 11.1019 90.7109 11.1717C89.9321 11.2589 89.6843 11.8171 89.6666 12.5148C89.64 13.3869 90.1091 14.0236 90.7728 13.98C91.5959 13.9277 91.7552 13.3172 91.8171 12.8113Z" fill="#FBFBFB"/>
<path d="M67.0132 12.551C66.9955 13.7895 66.1194 14.7139 64.9689 14.7139C63.8272 14.7139 62.9865 13.8243 63.0042 12.6208C63.0219 11.3998 63.9157 10.4491 65.0485 10.4317C66.1636 10.423 67.0309 11.3475 67.0132 12.5423V12.551ZM66.0928 12.6993C66.0751 11.7399 65.5884 11.0945 64.9689 11.173C64.137 11.2777 63.9246 11.8882 63.9334 12.6121C63.9334 13.4319 64.4113 14.0337 65.0485 13.9726C65.9158 13.8941 66.0574 13.2487 66.0928 12.6993Z" fill="#FBFBFB"/>
<path d="M59.2859 12.611C59.2859 12.4192 59.2682 12.236 59.2859 12.0442C59.3301 11.5645 58.985 10.8319 59.4098 10.6487C60.047 10.3784 60.8612 10.422 61.5692 10.6574C62.2418 10.8755 62.4365 11.6517 61.9055 12.1924C61.5426 12.5674 61.6134 12.7419 61.8701 13.082C62.0559 13.3262 62.171 13.6315 62.2772 13.928C62.3568 14.146 62.6843 14.46 62.1887 14.5821C61.8701 14.6606 61.5426 14.6257 61.4541 14.1984C61.4276 14.0763 61.3568 13.9629 61.3214 13.8495C61.1709 13.4309 61.0116 12.9425 60.4452 13.0297C59.7815 13.1256 60.2063 13.6838 60.1443 14.0152C60.0824 14.3379 60.1443 14.6431 59.6487 14.6083C59.2151 14.5821 59.2416 14.3117 59.2505 14.0152C59.2593 13.5442 59.2505 13.0733 59.2505 12.6023H59.2859V12.611ZM60.1178 11.8261C60.224 11.9657 59.9054 12.4453 60.4806 12.4017C60.87 12.3756 61.2683 12.2884 61.3037 11.7912C61.3391 11.2941 60.9939 11.1633 60.5691 11.1284C60.0824 11.0848 60.0647 11.39 60.1089 11.8174L60.1178 11.8261Z" fill="#FBFBFB"/>
<path d="M54.9478 12.5585C54.9478 12.4015 54.8858 12.2096 54.9566 12.0962C55.2398 11.6078 54.2575 10.6136 55.5938 10.5525C57.408 10.4653 58.2576 10.9712 58.3727 12.227C58.532 13.9103 56.9301 15.1313 55.2575 14.6254C54.9035 14.5208 54.93 14.3027 54.93 14.0585C54.93 13.5614 54.93 13.0556 54.93 12.5585C54.93 12.5585 54.9301 12.5585 54.9389 12.5585H54.9478ZM57.47 12.6021C57.47 12.2532 57.4258 11.9218 57.1868 11.634C56.8771 11.2677 56.4434 11.0845 56.0098 11.2066C55.5496 11.3287 55.8062 11.791 55.7885 12.1049C55.7708 12.48 55.7885 12.855 55.8328 13.2213C55.8682 13.4655 55.6734 13.8318 56.0628 13.9364C56.3726 14.0237 56.6912 13.9364 56.9656 13.7446C57.3638 13.4568 57.4788 13.0556 57.4788 12.6021H57.47Z" fill="#FBFBFB"/>
<path d="M69.8809 12.6109C69.8809 12.419 69.8189 12.2097 69.8897 12.0527C70.111 11.573 69.3145 10.7707 70.2791 10.5788C71.7571 10.291 72.8102 10.7358 73.1377 11.6864C73.4386 12.5498 73.2881 13.3697 72.6421 14.0499C71.9429 14.7825 71.0314 14.6953 70.1287 14.6255C69.8101 14.5994 69.8455 14.3377 69.8455 14.1197C69.8455 13.6139 69.8455 13.1167 69.8455 12.6109C69.8455 12.6109 69.8632 12.6109 69.872 12.6109H69.8809ZM70.6774 12.5149C70.6774 12.5149 70.6774 12.5149 70.6862 12.5149C70.6862 12.733 70.6508 12.9597 70.6862 13.1691C70.7393 13.4394 70.4827 13.8493 70.9517 13.954C71.3057 14.0325 71.6509 13.9365 71.9341 13.7011C72.5447 13.1778 72.5536 12.0265 71.9341 11.5033C71.6332 11.2416 71.2438 11.0934 70.8721 11.2155C70.465 11.3463 70.7128 11.7562 70.6685 12.044C70.642 12.1923 70.6685 12.358 70.6685 12.5149H70.6774Z" fill="#FBFBFB"/>
<path d="M47.9142 10.5706C48.2948 10.5183 48.5514 10.5881 48.6842 11.0241C48.9851 12.0097 49.3656 12.9777 49.6842 13.9545C49.755 14.1726 49.994 14.5389 49.4807 14.5912C49.1798 14.6261 48.8346 14.6959 48.755 14.2162C48.6842 13.7278 48.516 13.3964 47.8434 13.4051C47.2151 13.4225 46.9938 13.6754 46.9142 14.1987C46.8345 14.722 46.4274 14.661 46.1177 14.5738C45.6929 14.4517 46.0292 14.1464 46.0911 13.9633C46.4363 12.9865 46.8434 12.0358 47.162 11.059C47.2947 10.6491 47.4894 10.4834 47.9054 10.5619L47.9142 10.5706ZM48.3213 12.7859C48.2063 12.3062 48.1266 11.8614 47.808 11.3904C47.6045 11.9312 47.4098 12.3149 47.4009 12.7684C47.6841 12.8905 47.9673 12.8556 48.3213 12.7946V12.7859Z" fill="#FBFBFB"/>
<path d="M79.1828 14.2167C79.2359 14.4522 79.1651 14.6005 78.9084 14.6005C78.6075 14.6005 78.2535 14.7138 78.165 14.2429C78.0854 13.8155 78.0234 13.3882 77.3685 13.4318C76.8552 13.4667 76.4216 13.4492 76.3685 14.1121C76.3242 14.6179 75.9437 14.7226 75.5454 14.583C75.0764 14.4173 75.4746 14.0772 75.5454 13.8853C75.8729 12.9085 76.2888 11.9579 76.6163 10.9811C76.7313 10.6409 76.9083 10.5101 77.2269 10.5624C77.4836 10.5973 77.8464 10.388 77.9792 10.763C78.3951 11.9055 78.7845 13.0655 79.1828 14.2167ZM77.7668 12.7864C77.5986 12.3329 77.5809 11.8794 77.2535 11.5043C76.8228 12.3939 76.9939 12.8213 77.7668 12.7864Z" fill="#FBFBFB"/>
<path d="M80.9951 10.5538C81.2341 10.5538 81.3934 10.5538 81.5527 10.5538C82.2164 10.5625 82.7828 10.7631 82.889 11.4783C82.9952 12.237 82.5881 12.8214 81.8536 12.926C81.0394 13.0394 80.6588 13.3011 80.827 14.1383C80.9066 14.5221 80.6588 14.618 80.3225 14.6093C79.9685 14.6093 79.9154 14.4261 79.9154 14.1296C79.9243 13.1005 79.8977 12.0713 79.9331 11.0422C79.9597 10.1526 80.7208 10.7631 81.004 10.5538H80.9951ZM80.7916 11.8359C80.8801 12.0364 80.6234 12.5248 81.2429 12.4638C81.6412 12.4289 82.004 12.3068 82.0306 11.8359C82.0571 11.2951 81.6766 11.173 81.2341 11.1469C80.7385 11.112 80.7916 11.4521 80.8004 11.8359H80.7916Z" fill="#FBFBFB"/>
<path d="M83.6942 12.4889C83.6942 12.3319 83.6942 12.1749 83.6942 12.018C83.6765 10.9888 84.1986 10.4975 85.2606 10.544C85.9509 10.5789 86.5439 10.7359 86.6235 11.547C86.6943 12.3494 86.2164 12.8727 85.5084 12.9424C84.6677 13.0209 84.3845 13.3087 84.5349 14.0937C84.588 14.364 84.5349 14.5908 84.1632 14.5995C83.7827 14.6082 83.6676 14.4425 83.6853 14.0849C83.7119 13.5529 83.6853 13.0209 83.6853 12.4889H83.703H83.6942ZM84.5172 11.8261C84.588 12.018 84.2871 12.4976 84.9155 12.4627C85.3668 12.4366 85.7562 12.2883 85.7828 11.7999C85.8005 11.3551 85.4553 11.1894 85.0305 11.1371C84.5084 11.076 84.4641 11.3726 84.5172 11.8261Z" fill="#FBFBFB"/>
<path d="M68.7553 12.6197C68.7553 13.1168 68.7553 13.6227 68.7553 14.1198C68.7553 14.3989 68.7376 14.6082 68.3659 14.6082C68.0207 14.6082 67.8438 14.5123 67.8438 14.1285C67.8614 13.0994 67.8703 12.0615 67.8438 11.0324C67.8438 10.6487 68.003 10.5615 68.357 10.5527C68.7376 10.5527 68.7553 10.7446 68.7553 11.0237C68.7464 11.5557 68.7553 12.0877 68.7553 12.6197Z" fill="#FBFBFB"/>
</g>
<defs>
<clipPath id="clip0_860_5208">
<rect width="150" height="50" fill="white"/>
</clipPath>
</defs>
</svg>
