<svg width="210" height="400" viewBox="0 0 210 400" fill="none" xmlns="http://www.w3.org/2000/svg">
<g clip-path="url(#clip0_874_6258)">
<path d="M2.7854 381.624C2.39206 381.624 2.11673 381.487 1.9594 381.211C1.80206 380.936 1.7234 380.641 1.7234 380.326C1.76273 379.658 1.92006 379.284 2.1954 379.205C2.47073 379.127 2.80506 379.087 3.1984 379.087C4.2604 379.087 5.06673 378.871 5.6174 378.438C6.16806 378.006 6.60073 377.435 6.9154 376.727C7.2694 376.019 7.60373 375.292 7.9184 374.544L18.2434 350.118C18.6367 349.174 18.7154 348.466 18.4794 347.994C18.2434 347.483 17.8501 347.129 17.2994 346.932C16.7487 346.696 16.1391 346.519 15.4704 346.401C14.8804 346.283 14.4871 346.185 14.2904 346.106C14.0937 345.988 13.9954 345.634 13.9954 345.044C13.9954 344.376 14.2314 344.022 14.7034 343.982C15.1754 343.904 15.7261 343.864 16.3554 343.864C17.9681 343.864 19.3447 344.022 20.4854 344.336C21.6261 344.651 22.6094 345.261 23.4354 346.165C24.2614 347.031 25.0284 348.348 25.7364 350.118L35.6484 374.544C35.9237 375.213 36.2187 375.901 36.5334 376.609C36.8481 377.317 37.2611 377.907 37.7724 378.379C38.3231 378.812 39.0114 379.048 39.8374 379.087C40.2701 379.087 40.6044 379.127 40.8404 379.205C41.1157 379.284 41.2731 379.658 41.3124 380.326C41.3124 380.641 41.2141 380.936 41.0174 381.211C40.8601 381.487 40.6044 381.624 40.2504 381.624C38.9917 381.546 37.8904 381.487 36.9464 381.447C36.0024 381.447 34.9404 381.447 33.7604 381.447C31.4397 381.447 29.0011 381.506 26.4444 381.624C26.0511 381.624 25.7757 381.487 25.6184 381.211C25.4611 380.936 25.3824 380.641 25.3824 380.326C25.4217 379.658 25.5791 379.284 25.8544 379.205C26.1297 379.127 26.4641 379.087 26.8574 379.087C28.7847 379.087 29.8271 378.733 29.9844 378.025C30.1811 377.317 30.0041 376.157 29.4534 374.544L27.4474 369.647H12.8744C12.2844 371.142 11.8517 372.224 11.5764 372.892C11.3404 373.561 11.1831 373.994 11.1044 374.19C11.0651 374.387 11.0257 374.505 10.9864 374.544C10.5537 375.882 10.3177 376.885 10.2784 377.553C10.2784 378.183 10.5931 378.596 11.2224 378.792C11.8911 378.989 12.9924 379.087 14.5264 379.087C14.9591 379.087 15.2934 379.127 15.5294 379.205C15.8047 379.284 15.9621 379.658 16.0014 380.326C16.0014 380.641 15.9031 380.936 15.7064 381.211C15.5491 381.487 15.2934 381.624 14.9394 381.624C13.6807 381.546 12.5794 381.487 11.6354 381.447C10.7307 381.447 9.6884 381.447 8.5084 381.447C7.72173 381.447 7.05306 381.447 6.5024 381.447C5.99106 381.487 5.46006 381.506 4.9094 381.506C4.35873 381.546 3.65073 381.585 2.7854 381.624ZM13.9954 367.11H26.3854L20.4264 351.947H20.2494L13.9954 367.11ZM53.8393 382.155C50.8106 382.155 48.2736 381.624 46.2283 380.562C44.2223 379.461 43.2193 377.888 43.2193 375.842C43.2193 374.702 43.5536 373.777 44.2223 373.069C44.9303 372.361 45.835 372.007 46.9363 372.007C47.6443 372.007 48.2146 372.204 48.6473 372.597C49.1193 372.951 49.3553 373.207 49.3553 373.364C49.3553 373.482 49.1193 373.758 48.6473 374.19C48.2146 374.584 47.9983 375.233 47.9983 376.137C47.9983 377.239 48.5096 378.163 49.5323 378.91C50.5943 379.618 52.1873 379.972 54.3113 379.972C56.16 379.972 57.5956 379.579 58.6183 378.792C59.6803 377.966 60.2113 376.826 60.2113 375.37C60.2113 374.19 59.818 373.286 59.0313 372.656C58.284 371.988 57.3006 371.457 56.0813 371.063C54.9013 370.67 53.623 370.277 52.2463 369.883C50.909 369.49 49.6306 368.998 48.4113 368.408C47.192 367.818 46.189 367.012 45.4023 365.989C44.655 364.927 44.2813 363.531 44.2813 361.8C44.2813 360.03 44.8123 358.575 45.8743 357.434C46.9363 356.294 48.2933 355.448 49.9453 354.897C51.5973 354.307 53.269 354.012 54.9603 354.012C56.4156 354.012 57.7923 354.229 59.0903 354.661C60.3883 355.055 61.4503 355.664 62.2763 356.49C63.1416 357.316 63.5743 358.359 63.5743 359.617C63.5743 360.601 63.2596 361.486 62.6303 362.272C62.001 363.059 61.1356 363.452 60.0343 363.452C59.3263 363.452 58.7363 363.275 58.2643 362.921C57.8316 362.528 57.6153 362.253 57.6153 362.095C57.6153 362.017 57.753 361.879 58.0283 361.682C58.343 361.446 58.638 361.151 58.9133 360.797C59.1886 360.404 59.3263 359.912 59.3263 359.322C59.2476 358.182 58.697 357.336 57.6743 356.785C56.6516 356.235 55.511 355.959 54.2523 355.959C52.8756 355.959 51.5973 356.294 50.4173 356.962C49.2373 357.631 48.6473 358.595 48.6473 359.853C48.6473 360.994 48.8833 361.879 49.3553 362.508C49.8666 363.138 50.6533 363.688 51.7153 364.16C52.8166 364.593 54.2326 365.085 55.9633 365.635C57.694 366.186 59.2083 366.756 60.5063 367.346C61.8436 367.936 62.8663 368.723 63.5743 369.706C64.3216 370.65 64.6953 371.948 64.6953 373.6C64.6953 375.252 64.2233 376.727 63.2793 378.025C62.3353 379.323 61.0373 380.346 59.3853 381.093C57.7726 381.801 55.924 382.155 53.8393 382.155ZM79.8795 382.45C78.6995 382.45 77.5785 382.155 76.5165 381.565C75.4545 380.975 74.5695 380.071 73.8615 378.851C73.1928 377.632 72.8585 376.098 72.8585 374.249V356.903L69.4365 357.021C69.1612 357.021 68.9448 356.923 68.7875 356.726C68.6695 356.49 68.6105 356.235 68.6105 355.959C68.6105 355.173 68.8858 354.72 69.4365 354.602C70.8918 354.327 71.9932 353.875 72.7405 353.245C73.4878 352.577 74.0582 351.79 74.4515 350.885C74.8842 349.981 75.2775 348.997 75.6315 347.935C75.7495 347.621 75.9265 347.424 76.1625 347.345C76.3985 347.227 76.6542 347.168 76.9295 347.168C77.1655 347.168 77.4212 347.227 77.6965 347.345C78.0112 347.463 78.1685 347.68 78.1685 347.994L77.7555 354.72L84.6585 354.307C85.0125 354.268 85.2485 354.366 85.3665 354.602C85.4845 354.838 85.5435 355.114 85.5435 355.428C85.5435 355.822 85.4648 356.215 85.3075 356.608C85.1895 357.002 85.0322 357.198 84.8355 357.198L78.2275 357.021V374.957C78.2275 376.098 78.4635 377.14 78.9355 378.084C79.4468 379.028 80.3515 379.5 81.6495 379.5C82.0822 379.5 82.5738 379.461 83.1245 379.382C83.6752 379.304 84.2652 379.127 84.8945 378.851C85.0518 378.773 85.2092 378.714 85.3665 378.674C85.5238 378.596 85.6812 378.556 85.8385 378.556C86.1532 378.556 86.3892 378.694 86.5465 378.969C86.7038 379.205 86.8415 379.461 86.9595 379.736C87.0775 380.09 86.9792 380.366 86.6645 380.562C85.4452 381.349 84.3242 381.86 83.3015 382.096C82.2788 382.332 81.1382 382.45 79.8795 382.45ZM105.657 382.155C102.904 382.155 100.485 381.506 98.4 380.208C96.3546 378.91 94.7616 377.219 93.621 375.134C92.4803 373.05 91.91 370.827 91.91 368.467C91.91 366.147 92.323 364.082 93.149 362.272C93.975 360.463 95.0566 358.949 96.394 357.729C97.7706 356.51 99.2653 355.586 100.878 354.956C102.491 354.327 104.084 354.012 105.657 354.012C108.41 354.012 110.81 354.661 112.855 355.959C114.94 357.257 116.552 358.949 117.693 361.033C118.834 363.118 119.404 365.34 119.404 367.7C119.404 370.021 118.971 372.086 118.106 373.895C117.28 375.705 116.179 377.219 114.802 378.438C113.465 379.658 111.99 380.582 110.377 381.211C108.764 381.841 107.191 382.155 105.657 382.155ZM105.657 379.972C107.584 379.972 109.099 379.402 110.2 378.261C111.341 377.121 112.147 375.626 112.619 373.777C113.13 371.889 113.386 369.864 113.386 367.7C113.386 365.616 113.13 363.708 112.619 361.977C112.108 360.247 111.282 358.85 110.141 357.788C109 356.726 107.506 356.195 105.657 356.195C103.73 356.195 102.196 356.766 101.055 357.906C99.9143 359.008 99.108 360.483 98.636 362.331C98.164 364.141 97.928 366.147 97.928 368.349C97.928 370.395 98.164 372.302 98.636 374.072C99.1473 375.842 99.9733 377.278 101.114 378.379C102.255 379.441 103.769 379.972 105.657 379.972ZM124.36 381.624C124.084 381.624 123.848 381.506 123.652 381.27C123.494 380.995 123.416 380.72 123.416 380.444C123.494 379.854 123.652 379.54 123.888 379.5C124.124 379.422 124.438 379.382 124.832 379.382C125.933 379.382 126.68 379.205 127.074 378.851C127.467 378.458 127.683 377.947 127.723 377.317C127.801 376.688 127.841 376.039 127.841 375.37V361.859C127.841 361.151 127.801 360.502 127.723 359.912C127.683 359.283 127.467 358.791 127.074 358.437C126.68 358.044 125.933 357.847 124.832 357.847C124.478 357.847 124.143 357.808 123.829 357.729C123.553 357.611 123.416 357.257 123.416 356.667C123.416 356.077 123.73 355.723 124.36 355.605C126.169 355.33 127.546 355.055 128.49 354.779C129.473 354.504 130.201 354.268 130.673 354.071C131.184 353.875 131.636 353.757 132.03 353.717C132.344 353.678 132.6 353.737 132.797 353.894C133.033 354.052 133.151 354.366 133.151 354.838V358.496H133.328C134.665 357.198 136.042 356.136 137.458 355.31C138.874 354.445 140.172 354.012 141.352 354.012C142.728 354.012 143.771 354.524 144.479 355.546C145.226 356.569 145.6 357.651 145.6 358.791C145.6 359.775 145.285 360.738 144.656 361.682C144.026 362.587 143.082 363.039 141.824 363.039C141.194 363.039 140.683 362.921 140.29 362.685C139.936 362.41 139.739 362.213 139.7 362.095C139.7 362.017 139.877 361.781 140.231 361.387C140.624 360.994 140.821 360.502 140.821 359.912C140.821 359.204 140.624 358.634 140.231 358.201C139.877 357.769 139.385 357.552 138.756 357.552C138.087 357.552 137.222 357.887 136.16 358.555C135.137 359.224 134.154 360.03 133.21 360.974V375.37C133.21 376.039 133.229 376.688 133.269 377.317C133.347 377.947 133.583 378.458 133.977 378.851C134.409 379.205 135.176 379.382 136.278 379.382C136.632 379.382 136.927 379.422 137.163 379.5C137.438 379.54 137.595 379.854 137.635 380.444C137.635 380.72 137.556 380.995 137.399 381.27C137.241 381.506 137.005 381.624 136.691 381.624C135.55 381.546 134.488 381.487 133.505 381.447C132.561 381.447 131.558 381.447 130.496 381.447C129.434 381.447 128.431 381.447 127.487 381.447C126.543 381.487 125.5 381.546 124.36 381.624ZM152.196 394.309C151.055 394.309 149.974 394.054 148.951 393.542C147.968 393.031 147.181 392.343 146.591 391.477C146.001 390.651 145.706 389.747 145.706 388.763C145.745 387.701 145.981 386.875 146.414 386.285C146.807 385.735 147.26 385.341 147.771 385.105C148.282 384.909 148.715 384.791 149.069 384.751C149.423 384.712 149.561 384.692 149.482 384.692C150.229 384.692 150.8 384.83 151.193 385.105C151.586 385.42 151.783 385.676 151.783 385.872C151.783 385.951 151.626 386.128 151.311 386.403C151.036 386.718 150.878 387.249 150.839 387.996C150.8 388.704 151.016 389.393 151.488 390.061C151.96 390.73 152.688 391.064 153.671 391.064C154.772 391.064 155.775 390.651 156.68 389.825C157.585 389.039 158.391 388.055 159.099 386.875C159.807 385.695 160.417 384.555 160.928 383.453C161.203 382.588 161.184 381.683 160.869 380.739C159.925 378.615 159.001 376.354 158.096 373.954C157.191 371.555 156.306 369.234 155.441 366.992C154.615 364.75 153.789 362.784 152.963 361.092C152.334 359.637 151.724 358.614 151.134 358.024C150.544 357.395 149.659 357.002 148.479 356.844C147.968 356.766 147.614 356.687 147.417 356.608C147.26 356.53 147.161 356.235 147.122 355.723C147.083 355.055 147.26 354.701 147.653 354.661C148.086 354.583 148.597 354.524 149.187 354.484C151.626 354.366 153.533 354.72 154.91 355.546C156.287 356.372 157.408 357.769 158.273 359.735C158.824 360.955 159.433 362.469 160.102 364.278C160.771 366.088 161.479 367.917 162.226 369.765C162.973 371.614 163.701 373.286 164.409 374.78H164.586L170.368 359.322C170.761 358.182 170.781 357.474 170.427 357.198C170.073 356.923 169.306 356.785 168.126 356.785C167.772 356.785 167.477 356.766 167.241 356.726C167.005 356.648 166.867 356.313 166.828 355.723C166.828 355.487 166.887 355.232 167.005 354.956C167.162 354.681 167.379 354.543 167.654 354.543C168.795 354.583 169.778 354.622 170.604 354.661C171.43 354.701 172.354 354.72 173.377 354.72C174.085 354.72 174.655 354.72 175.088 354.72C175.521 354.681 175.973 354.661 176.445 354.661C176.917 354.622 177.527 354.583 178.274 354.543C178.589 354.543 178.805 354.681 178.923 354.956C179.08 355.232 179.159 355.487 179.159 355.723C179.12 356.313 178.962 356.648 178.687 356.726C178.451 356.766 178.176 356.785 177.861 356.785C176.563 356.785 175.521 357.021 174.734 357.493C173.987 357.965 173.338 358.89 172.787 360.266C172.787 360.266 172.571 360.778 172.138 361.8C171.745 362.823 171.214 364.16 170.545 365.812C169.876 367.464 169.168 369.215 168.421 371.063C167.674 372.873 166.966 374.603 166.297 376.255C165.628 377.907 165.078 379.264 164.645 380.326C164.212 381.388 163.976 381.959 163.937 382.037C163.426 383.257 162.796 384.574 162.049 385.99C161.341 387.446 160.495 388.783 159.512 390.002C158.568 391.261 157.486 392.284 156.267 393.07C155.048 393.896 153.691 394.309 152.196 394.309ZM188.71 382.155C186.31 382.155 184.383 381.467 182.928 380.09C181.512 378.714 180.804 377.062 180.804 375.134C180.804 373.128 181.315 371.555 182.338 370.414C183.4 369.274 184.776 368.428 186.468 367.877C188.198 367.327 190.067 366.953 192.073 366.756C194.118 366.56 196.104 366.402 198.032 366.284V361.623C198.032 359.775 197.56 358.339 196.616 357.316C195.711 356.254 194.157 355.723 191.955 355.723C190.853 355.723 189.811 356.077 188.828 356.785C187.884 357.493 187.412 358.516 187.412 359.853C187.412 360.483 187.569 361.014 187.884 361.446C188.198 361.879 188.513 362.213 188.828 362.449C189.142 362.685 189.3 362.843 189.3 362.921C189.3 363.079 189.064 363.374 188.592 363.806C188.159 364.2 187.549 364.396 186.763 364.396C185.543 364.396 184.599 363.944 183.931 363.039C183.262 362.135 182.928 361.132 182.928 360.03C182.928 358.536 183.38 357.356 184.285 356.49C185.229 355.625 186.428 354.996 187.884 354.602C189.339 354.209 190.814 354.012 192.309 354.012C194.079 354.012 195.79 354.229 197.442 354.661C199.133 355.094 200.51 355.92 201.572 357.139C202.673 358.359 203.224 360.188 203.224 362.626V376.373C203.263 376.767 203.361 377.239 203.519 377.789C203.676 378.34 203.971 378.832 204.404 379.264C204.876 379.658 205.505 379.854 206.292 379.854C206.567 379.854 206.783 379.913 206.941 380.031C207.098 380.11 207.177 380.366 207.177 380.798C207.177 381.152 206.98 381.428 206.587 381.624C206.193 381.821 205.741 381.959 205.23 382.037C204.718 382.116 204.286 382.155 203.932 382.155C202.476 382.155 201.178 381.742 200.038 380.916C198.897 380.051 198.228 378.871 198.032 377.376C197.166 378.95 195.868 380.149 194.138 380.975C192.446 381.762 190.637 382.155 188.71 382.155ZM190.598 378.969C191.935 378.969 193.154 378.635 194.256 377.966C195.396 377.298 196.301 376.393 196.97 375.252C197.678 374.072 198.032 372.774 198.032 371.358V367.995C193.98 368.271 191.089 368.92 189.359 369.942C187.628 370.965 186.763 372.637 186.763 374.957C186.763 377.632 188.041 378.969 190.598 378.969Z" fill="white"/>
<path d="M2.20093 144.286V300.804C74.6984 323.922 106.767 300.804 106.767 300.804C106.767 300.804 148.934 323.922 206.25 299.033V174.553" stroke="white" stroke-width="4" stroke-miterlimit="10" stroke-linecap="round"/>
<path d="M206.25 154.944C207.173 154.944 207.922 154.151 207.922 153.173C207.922 152.195 207.173 151.402 206.25 151.402C205.326 151.402 204.577 152.195 204.577 153.173C204.577 154.151 205.326 154.944 206.25 154.944Z" fill="white" stroke="white" stroke-width="4" stroke-miterlimit="10" stroke-linecap="round"/>
<path d="M102.569 198.786C100.799 170.88 79.42 147.729 51.7784 143.728L24.7927 139.826L51.7784 135.924C79.42 131.923 100.799 108.739 102.569 80.8654L106.078 25.7744L109.586 80.8654C111.357 108.772 132.736 131.923 160.377 135.924L187.363 139.826L160.377 143.728C132.736 147.729 111.357 170.913 109.586 198.786L106.078 253.877L102.569 198.786Z" fill="url(#paint0_radial_874_6258)"/>
<path d="M106.078 51.4838L107.947 80.9641C109.783 109.625 131.719 133.432 160.148 137.564L175.952 139.859L160.148 142.154C131.719 146.286 109.783 170.093 107.947 198.754L106.078 228.234L104.209 198.754C102.373 170.093 80.4365 146.286 52.0081 142.154L36.2035 139.859L52.0081 137.564C80.4365 133.432 102.373 109.625 104.209 80.9641L106.078 51.4838ZM106.078 0L100.93 80.7346C99.1921 108.018 78.5675 130.349 51.5162 134.284L13.3821 139.826L51.5162 145.368C78.5675 149.303 99.1593 171.635 100.93 198.918L106.078 279.652L111.226 198.918C112.964 171.635 133.588 149.303 160.64 145.368L198.774 139.826L160.64 134.284C133.588 130.349 112.996 108.018 111.226 80.7346L106.078 0Z" fill="white"/>
</g>
<defs>
<radialGradient id="paint0_radial_874_6258" cx="0" cy="0" r="1" gradientUnits="userSpaceOnUse" gradientTransform="translate(106.078 139.826) scale(99.057 99.0654)">
<stop stop-color="#FEEDB6"/>
<stop offset="0.61" stop-color="white"/>
</radialGradient>
<clipPath id="clip0_874_6258">
<rect width="209" height="400" fill="white" transform="translate(0.561523)"/>
</clipPath>
</defs>
</svg>
