<svg width="110" height="39" viewBox="0 0 110 39" fill="none" xmlns="http://www.w3.org/2000/svg">
<path d="M1 17.4873V36.4586C9.60489 39.2608 13.4111 36.4586 13.4111 36.4586C13.4111 36.4586 18.416 39.2608 25.219 36.244V21.156" stroke="white" stroke-miterlimit="10" stroke-linecap="round"/>
<path d="M25.2379 19.4579C25.5376 19.4579 25.7805 19.2098 25.7805 18.9038C25.7805 18.5977 25.5376 18.3496 25.2379 18.3496C24.9382 18.3496 24.6953 18.5977 24.6953 18.9038C24.6953 19.2098 24.9382 19.4579 25.2379 19.4579Z" fill="white"/>
<path d="M12.917 24.0946C12.7069 20.7122 10.1694 17.906 6.88854 17.4211L3.68555 16.9481L6.88854 16.4751C10.1694 15.9902 12.7069 13.1801 12.917 9.80155L13.3335 3.12402L13.7499 9.80155C13.96 13.184 16.4975 15.9902 19.7784 16.4751L22.9814 16.9481L19.7784 17.4211C16.4975 17.906 13.96 20.7161 13.7499 24.0946L13.3335 30.7722L12.917 24.0946Z" fill="url(#paint0_radial_922_7038)"/>
<path d="M13.3323 6.24031L13.5542 9.81359C13.7721 13.2875 16.3758 16.1731 19.75 16.674L21.6259 16.9522L19.75 17.2304C16.3758 17.7312 13.7721 20.6169 13.5542 24.0908L13.3323 27.6641L13.1105 24.0908C12.8926 20.6169 10.2889 17.7312 6.91468 17.2304L5.03881 16.9522L6.91468 16.674C10.2889 16.1731 12.8926 13.2875 13.1105 9.81359L13.3323 6.24031ZM13.3323 0L12.7213 9.78576C12.5151 13.0927 10.0671 15.7995 6.8563 16.2765L2.33008 16.9482L6.8563 17.6199C10.0671 18.0969 12.5112 20.8037 12.7213 24.1107L13.3323 33.8964L13.9434 24.1107C14.1496 20.8037 16.5976 18.0969 19.8084 17.6199L24.3346 16.9482L19.8084 16.2765C16.5976 15.7995 14.1535 13.0927 13.9434 9.78576L13.3323 0Z" fill="white"/>
<path d="M35.9013 33.06C35.7679 33.06 35.6746 33.0133 35.6212 32.92C35.5679 32.8267 35.5412 32.7267 35.5412 32.62C35.5546 32.3933 35.6079 32.2667 35.7012 32.24C35.7946 32.2133 35.9079 32.2 36.0413 32.2C36.4013 32.2 36.6746 32.1267 36.8613 31.98C37.0479 31.8333 37.1946 31.64 37.3013 31.4C37.4213 31.16 37.5346 30.9133 37.6413 30.66L41.1413 22.38C41.2746 22.06 41.3013 21.82 41.2213 21.66C41.1413 21.4867 41.0079 21.3667 40.8213 21.3C40.6346 21.22 40.4279 21.16 40.2013 21.12C40.0013 21.08 39.8679 21.0467 39.8013 21.02C39.7346 20.98 39.7013 20.86 39.7013 20.66C39.7013 20.4333 39.7813 20.3133 39.9413 20.3C40.1013 20.2733 40.2879 20.26 40.5013 20.26C41.0479 20.26 41.5146 20.3133 41.9013 20.42C42.2879 20.5267 42.6213 20.7333 42.9013 21.04C43.1813 21.3333 43.4413 21.78 43.6813 22.38L47.0413 30.66C47.1346 30.8867 47.2346 31.12 47.3413 31.36C47.4479 31.6 47.5879 31.8 47.7613 31.96C47.9479 32.1067 48.1813 32.1867 48.4613 32.2C48.6079 32.2 48.7213 32.2133 48.8013 32.24C48.8946 32.2667 48.9479 32.3933 48.9613 32.62C48.9613 32.7267 48.9279 32.8267 48.8613 32.92C48.8079 33.0133 48.7213 33.06 48.6013 33.06C48.1746 33.0333 47.8013 33.0133 47.4813 33C47.1613 33 46.8013 33 46.4013 33C45.6146 33 44.7879 33.02 43.9213 33.06C43.7879 33.06 43.6946 33.0133 43.6413 32.92C43.5879 32.8267 43.5613 32.7267 43.5613 32.62C43.5746 32.3933 43.6279 32.2667 43.7213 32.24C43.8146 32.2133 43.9279 32.2 44.0613 32.2C44.7146 32.2 45.0679 32.08 45.1213 31.84C45.1879 31.6 45.1279 31.2067 44.9413 30.66L44.2613 29H39.3213C39.1213 29.5067 38.9746 29.8733 38.8813 30.1C38.8013 30.3267 38.7479 30.4733 38.7212 30.54C38.7079 30.6067 38.6946 30.6467 38.6813 30.66C38.5346 31.1133 38.4546 31.4533 38.4413 31.68C38.4413 31.8933 38.5479 32.0333 38.7613 32.1C38.9879 32.1667 39.3613 32.2 39.8813 32.2C40.0279 32.2 40.1413 32.2133 40.2213 32.24C40.3146 32.2667 40.3679 32.3933 40.3813 32.62C40.3813 32.7267 40.3479 32.8267 40.2813 32.92C40.2279 33.0133 40.1413 33.06 40.0213 33.06C39.5946 33.0333 39.2213 33.0133 38.9013 33C38.5946 33 38.2413 33 37.8413 33C37.5746 33 37.3479 33 37.1613 33C36.9879 33.0133 36.8079 33.02 36.6213 33.02C36.4346 33.0333 36.1946 33.0467 35.9013 33.06ZM39.7013 28.14H43.9013L41.8813 23H41.8213L39.7013 28.14ZM53.2077 33.24C52.181 33.24 51.321 33.06 50.6277 32.7C49.9477 32.3267 49.6077 31.7933 49.6077 31.1C49.6077 30.7133 49.721 30.4 49.9477 30.16C50.1877 29.92 50.4943 29.8 50.8677 29.8C51.1077 29.8 51.301 29.8667 51.4477 30C51.6077 30.12 51.6877 30.2067 51.6877 30.26C51.6877 30.3 51.6077 30.3933 51.4477 30.54C51.301 30.6733 51.2277 30.8933 51.2277 31.2C51.2277 31.5733 51.401 31.8867 51.7477 32.14C52.1077 32.38 52.6477 32.5 53.3677 32.5C53.9943 32.5 54.481 32.3667 54.8277 32.1C55.1877 31.82 55.3677 31.4333 55.3677 30.94C55.3677 30.54 55.2343 30.2333 54.9677 30.02C54.7143 29.7933 54.381 29.6133 53.9677 29.48C53.5677 29.3467 53.1343 29.2133 52.6677 29.08C52.2143 28.9467 51.781 28.78 51.3677 28.58C50.9543 28.38 50.6143 28.1067 50.3477 27.76C50.0943 27.4 49.9677 26.9267 49.9677 26.34C49.9677 25.74 50.1477 25.2467 50.5077 24.86C50.8677 24.4733 51.3277 24.1867 51.8877 24C52.4477 23.8 53.0143 23.7 53.5877 23.7C54.081 23.7 54.5477 23.7733 54.9877 23.92C55.4277 24.0533 55.7877 24.26 56.0677 24.54C56.361 24.82 56.5077 25.1733 56.5077 25.6C56.5077 25.9333 56.401 26.2333 56.1877 26.5C55.9743 26.7667 55.681 26.9 55.3077 26.9C55.0677 26.9 54.8677 26.84 54.7077 26.72C54.561 26.5867 54.4877 26.4933 54.4877 26.44C54.4877 26.4133 54.5343 26.3667 54.6277 26.3C54.7343 26.22 54.8343 26.12 54.9277 26C55.021 25.8667 55.0677 25.7 55.0677 25.5C55.041 25.1133 54.8543 24.8267 54.5077 24.64C54.161 24.4533 53.7743 24.36 53.3477 24.36C52.881 24.36 52.4477 24.4733 52.0477 24.7C51.6477 24.9267 51.4477 25.2533 51.4477 25.68C51.4477 26.0667 51.5277 26.3667 51.6877 26.58C51.861 26.7933 52.1277 26.98 52.4877 27.14C52.861 27.2867 53.341 27.4533 53.9277 27.64C54.5143 27.8267 55.0277 28.02 55.4677 28.22C55.921 28.42 56.2677 28.6867 56.5077 29.02C56.761 29.34 56.8877 29.78 56.8877 30.34C56.8877 30.9 56.7277 31.4 56.4077 31.84C56.0877 32.28 55.6477 32.6267 55.0877 32.88C54.541 33.12 53.9143 33.24 53.2077 33.24ZM62.0348 33.34C61.6348 33.34 61.2548 33.24 60.8948 33.04C60.5348 32.84 60.2348 32.5333 59.9948 32.12C59.7682 31.7067 59.6548 31.1867 59.6548 30.56V24.68L58.4948 24.72C58.4015 24.72 58.3282 24.6867 58.2748 24.62C58.2348 24.54 58.2148 24.4533 58.2148 24.36C58.2148 24.0933 58.3082 23.94 58.4948 23.9C58.9882 23.8067 59.3615 23.6533 59.6148 23.44C59.8682 23.2133 60.0615 22.9467 60.1948 22.64C60.3415 22.3333 60.4748 22 60.5948 21.64C60.6348 21.5333 60.6948 21.4667 60.7748 21.44C60.8548 21.4 60.9415 21.38 61.0348 21.38C61.1148 21.38 61.2015 21.4 61.2948 21.44C61.4015 21.48 61.4548 21.5533 61.4548 21.66L61.3148 23.94L63.6548 23.8C63.7748 23.7867 63.8548 23.82 63.8948 23.9C63.9348 23.98 63.9548 24.0733 63.9548 24.18C63.9548 24.3133 63.9282 24.4467 63.8748 24.58C63.8348 24.7133 63.7815 24.78 63.7148 24.78L61.4748 24.72V30.8C61.4748 31.1867 61.5548 31.54 61.7148 31.86C61.8882 32.18 62.1948 32.34 62.6348 32.34C62.7815 32.34 62.9482 32.3267 63.1348 32.3C63.3215 32.2733 63.5215 32.2133 63.7348 32.12C63.7882 32.0933 63.8415 32.0733 63.8948 32.06C63.9482 32.0333 64.0015 32.02 64.0548 32.02C64.1615 32.02 64.2415 32.0667 64.2948 32.16C64.3482 32.24 64.3948 32.3267 64.4348 32.42C64.4748 32.54 64.4415 32.6333 64.3348 32.7C63.9215 32.9667 63.5415 33.14 63.1948 33.22C62.8482 33.3 62.4615 33.34 62.0348 33.34ZM70.773 33.24C69.8396 33.24 69.0196 33.02 68.313 32.58C67.6196 32.14 67.0796 31.5667 66.693 30.86C66.3063 30.1533 66.113 29.4 66.113 28.6C66.113 27.8133 66.253 27.1133 66.533 26.5C66.813 25.8867 67.1796 25.3733 67.633 24.96C68.0996 24.5467 68.6063 24.2333 69.153 24.02C69.6996 23.8067 70.2396 23.7 70.773 23.7C71.7063 23.7 72.5196 23.92 73.213 24.36C73.9196 24.8 74.4663 25.3733 74.853 26.08C75.2396 26.7867 75.433 27.54 75.433 28.34C75.433 29.1267 75.2863 29.8267 74.993 30.44C74.713 31.0533 74.3396 31.5667 73.873 31.98C73.4196 32.3933 72.9196 32.7067 72.373 32.92C71.8263 33.1333 71.293 33.24 70.773 33.24ZM70.773 32.5C71.4263 32.5 71.9396 32.3067 72.313 31.92C72.6996 31.5333 72.973 31.0267 73.133 30.4C73.3063 29.76 73.393 29.0733 73.393 28.34C73.393 27.6333 73.3063 26.9867 73.133 26.4C72.9596 25.8133 72.6796 25.34 72.293 24.98C71.9063 24.62 71.3996 24.44 70.773 24.44C70.1196 24.44 69.5996 24.6333 69.213 25.02C68.8263 25.3933 68.553 25.8933 68.393 26.52C68.233 27.1333 68.153 27.8133 68.153 28.56C68.153 29.2533 68.233 29.9 68.393 30.5C68.5663 31.1 68.8463 31.5867 69.233 31.96C69.6196 32.32 70.133 32.5 70.773 32.5ZM77.1128 33.06C77.0195 33.06 76.9395 33.02 76.8728 32.94C76.8195 32.8467 76.7928 32.7533 76.7928 32.66C76.8195 32.46 76.8728 32.3533 76.9528 32.34C77.0328 32.3133 77.1395 32.3 77.2728 32.3C77.6461 32.3 77.8995 32.24 78.0328 32.12C78.1661 31.9867 78.2395 31.8133 78.2528 31.6C78.2795 31.3867 78.2928 31.1667 78.2928 30.94V26.36C78.2928 26.12 78.2795 25.9 78.2528 25.7C78.2395 25.4867 78.1661 25.32 78.0328 25.2C77.8995 25.0667 77.6461 25 77.2728 25C77.1528 25 77.0395 24.9867 76.9328 24.96C76.8395 24.92 76.7928 24.8 76.7928 24.6C76.7928 24.4 76.8995 24.28 77.1128 24.24C77.7261 24.1467 78.1928 24.0533 78.5128 23.96C78.8461 23.8667 79.0928 23.7867 79.2528 23.72C79.4261 23.6533 79.5795 23.6133 79.7128 23.6C79.8195 23.5867 79.9061 23.6067 79.9728 23.66C80.0528 23.7133 80.0928 23.82 80.0928 23.98V25.22H80.1528C80.6061 24.78 81.0728 24.42 81.5528 24.14C82.0328 23.8467 82.4728 23.7 82.8728 23.7C83.3395 23.7 83.6928 23.8733 83.9328 24.22C84.1861 24.5667 84.3128 24.9333 84.3128 25.32C84.3128 25.6533 84.2061 25.98 83.9928 26.3C83.7795 26.6067 83.4595 26.76 83.0328 26.76C82.8195 26.76 82.6461 26.72 82.5128 26.64C82.3928 26.5467 82.3261 26.48 82.3128 26.44C82.3128 26.4133 82.3728 26.3333 82.4928 26.2C82.6261 26.0667 82.6928 25.9 82.6928 25.7C82.6928 25.46 82.6261 25.2667 82.4928 25.12C82.3728 24.9733 82.2061 24.9 81.9928 24.9C81.7661 24.9 81.4728 25.0133 81.1128 25.24C80.7661 25.4667 80.4328 25.74 80.1128 26.06V30.94C80.1128 31.1667 80.1195 31.3867 80.1328 31.6C80.1595 31.8133 80.2395 31.9867 80.3728 32.12C80.5195 32.24 80.7795 32.3 81.1528 32.3C81.2728 32.3 81.3728 32.3133 81.4528 32.34C81.5461 32.3533 81.5995 32.46 81.6128 32.66C81.6128 32.7533 81.5861 32.8467 81.5328 32.94C81.4795 33.02 81.3995 33.06 81.2928 33.06C80.9061 33.0333 80.5461 33.0133 80.2128 33C79.8928 33 79.5528 33 79.1928 33C78.8328 33 78.4928 33 78.1728 33C77.8528 33.0133 77.4995 33.0333 77.1128 33.06ZM86.5489 37.36C86.1622 37.36 85.7956 37.2733 85.4489 37.1C85.1156 36.9267 84.8489 36.6933 84.6489 36.4C84.4489 36.12 84.3489 35.8133 84.3489 35.48C84.3622 35.12 84.4422 34.84 84.5889 34.64C84.7222 34.4533 84.8756 34.32 85.0489 34.24C85.2222 34.1733 85.3689 34.1333 85.4889 34.12C85.6089 34.1067 85.6556 34.1 85.6289 34.1C85.8822 34.1 86.0756 34.1467 86.2089 34.24C86.3422 34.3467 86.4089 34.4333 86.4089 34.5C86.4089 34.5267 86.3556 34.5867 86.2489 34.68C86.1556 34.7867 86.1022 34.9667 86.0889 35.22C86.0756 35.46 86.1489 35.6933 86.3089 35.92C86.4689 36.1467 86.7156 36.26 87.0489 36.26C87.4222 36.26 87.7622 36.12 88.0689 35.84C88.3756 35.5733 88.6489 35.24 88.8889 34.84C89.1289 34.44 89.3356 34.0533 89.5089 33.68C89.6022 33.3867 89.5956 33.08 89.4889 32.76C89.1689 32.04 88.8556 31.2733 88.5489 30.46C88.2422 29.6467 87.9422 28.86 87.6489 28.1C87.3689 27.34 87.0889 26.6733 86.8089 26.1C86.5956 25.6067 86.3889 25.26 86.1889 25.06C85.9889 24.8467 85.6889 24.7133 85.2889 24.66C85.1156 24.6333 84.9956 24.6067 84.9289 24.58C84.8756 24.5533 84.8422 24.4533 84.8289 24.28C84.8156 24.0533 84.8756 23.9333 85.0089 23.92C85.1556 23.8933 85.3289 23.8733 85.5289 23.86C86.3556 23.82 87.0022 23.94 87.4689 24.22C87.9356 24.5 88.3156 24.9733 88.6089 25.64C88.7956 26.0533 89.0022 26.5667 89.2289 27.18C89.4556 27.7933 89.6956 28.4133 89.9489 29.04C90.2022 29.6667 90.4489 30.2333 90.6889 30.74H90.7489L92.7089 25.5C92.8422 25.1133 92.8489 24.8733 92.7289 24.78C92.6089 24.6867 92.3489 24.64 91.9489 24.64C91.8289 24.64 91.7289 24.6333 91.6489 24.62C91.5689 24.5933 91.5222 24.48 91.5089 24.28C91.5089 24.2 91.5289 24.1133 91.5689 24.02C91.6222 23.9267 91.6956 23.88 91.7889 23.88C92.1756 23.8933 92.5089 23.9067 92.7889 23.92C93.0689 23.9333 93.3822 23.94 93.7289 23.94C93.9689 23.94 94.1622 23.94 94.3089 23.94C94.4556 23.9267 94.6089 23.92 94.7689 23.92C94.9289 23.9067 95.1356 23.8933 95.3889 23.88C95.4956 23.88 95.5689 23.9267 95.6089 24.02C95.6622 24.1133 95.6889 24.2 95.6889 24.28C95.6756 24.48 95.6222 24.5933 95.5289 24.62C95.4489 24.6333 95.3556 24.64 95.2489 24.64C94.8089 24.64 94.4556 24.72 94.1889 24.88C93.9356 25.04 93.7156 25.3533 93.5289 25.82C93.5289 25.82 93.4556 25.9933 93.3089 26.34C93.1756 26.6867 92.9956 27.14 92.7689 27.7C92.5422 28.26 92.3022 28.8533 92.0489 29.48C91.7956 30.0933 91.5556 30.68 91.3289 31.24C91.1022 31.8 90.9156 32.26 90.7689 32.62C90.6222 32.98 90.5422 33.1733 90.5289 33.2C90.3556 33.6133 90.1422 34.06 89.8889 34.54C89.6489 35.0333 89.3622 35.4867 89.0289 35.9C88.7089 36.3267 88.3422 36.6733 87.9289 36.94C87.5156 37.22 87.0556 37.36 86.5489 37.36ZM98.9264 33.24C98.1131 33.24 97.4597 33.0067 96.9664 32.54C96.4864 32.0733 96.2464 31.5133 96.2464 30.86C96.2464 30.18 96.4197 29.6467 96.7664 29.26C97.1264 28.8733 97.5931 28.5867 98.1664 28.4C98.7531 28.2133 99.3864 28.0867 100.066 28.02C100.76 27.9533 101.433 27.9 102.086 27.86V26.28C102.086 25.6533 101.926 25.1667 101.606 24.82C101.3 24.46 100.773 24.28 100.026 24.28C99.6531 24.28 99.2997 24.4 98.9664 24.64C98.6464 24.88 98.4864 25.2267 98.4864 25.68C98.4864 25.8933 98.5397 26.0733 98.6464 26.22C98.7531 26.3667 98.8597 26.48 98.9664 26.56C99.0731 26.64 99.1264 26.6933 99.1264 26.72C99.1264 26.7733 99.0464 26.8733 98.8864 27.02C98.7397 27.1533 98.5331 27.22 98.2664 27.22C97.8531 27.22 97.5331 27.0667 97.3064 26.76C97.0797 26.4533 96.9664 26.1133 96.9664 25.74C96.9664 25.2333 97.1197 24.8333 97.4264 24.54C97.7464 24.2467 98.1531 24.0333 98.6464 23.9C99.1397 23.7667 99.6397 23.7 100.146 23.7C100.746 23.7 101.326 23.7733 101.886 23.92C102.46 24.0667 102.926 24.3467 103.286 24.76C103.66 25.1733 103.846 25.7933 103.846 26.62V31.28C103.86 31.4133 103.893 31.5733 103.946 31.76C104 31.9467 104.1 32.1133 104.246 32.26C104.406 32.3933 104.62 32.46 104.886 32.46C104.98 32.46 105.053 32.48 105.106 32.52C105.16 32.5467 105.186 32.6333 105.186 32.78C105.186 32.9 105.12 32.9933 104.986 33.06C104.853 33.1267 104.7 33.1733 104.526 33.2C104.353 33.2267 104.206 33.24 104.086 33.24C103.593 33.24 103.153 33.1 102.766 32.82C102.38 32.5267 102.153 32.1267 102.086 31.62C101.793 32.1533 101.353 32.56 100.766 32.84C100.193 33.1067 99.5797 33.24 98.9264 33.24ZM99.5664 32.16C100.02 32.16 100.433 32.0467 100.806 31.82C101.193 31.5933 101.5 31.2867 101.726 30.9C101.966 30.5 102.086 30.06 102.086 29.58V28.44C100.713 28.5333 99.7331 28.7533 99.1464 29.1C98.5597 29.4467 98.2664 30.0133 98.2664 30.8C98.2664 31.7067 98.6997 32.16 99.5664 32.16Z" fill="white"/>
<defs>
<radialGradient id="paint0_radial_922_7038" cx="0" cy="0" r="1" gradientUnits="userSpaceOnUse" gradientTransform="translate(13.3335 16.9481) scale(11.7573 12.0076)">
<stop stop-color="#FEEDB6"/>
<stop offset="0.61" stop-color="white"/>
</radialGradient>
</defs>
</svg>
