<svg width="25" height="24" viewBox="0 0 25 24" fill="none" xmlns="http://www.w3.org/2000/svg">
<path d="M9.02265 10.3335C5.7818 10.5585 3 12.868 3 16.4077C3 19.7724 5.69645 22.5 9.02265 22.5C12.3488 22.5 15.0453 19.7724 15.0453 16.4077L14.8713 8.8127C16.3848 9.9803 18.8023 10.6866 21.0395 10.7994C21.4397 10.8196 21.8236 10.6378 21.9171 10.2481C21.9647 10.0496 22 9.79125 22 9.4616C22 9.13195 21.9647 8.87365 21.9171 8.67515C21.8236 8.28535 21.4388 8.11615 21.04 8.07625C18.0152 7.77345 15.1666 5.32625 14.7593 2.4364C14.7077 2.07064 14.5028 1.73334 14.1453 1.64032C13.8611 1.56636 13.4822 1.5 13.0377 1.5C12.5927 1.5 12.2135 1.56652 11.9292 1.64058C11.5722 1.73356 11.3595 2.06868 11.351 2.43744L11.0302 16.4077C11.0302 17.5292 10.1314 18.4384 9.02265 18.4384C7.9139 18.4384 7.0151 17.5292 7.0151 16.4077C7.0151 15.2417 7.9896 14.4911 9.02265 14.2989" stroke="white" stroke-width="2" stroke-linecap="round" stroke-linejoin="round"/>
</svg>
