<svg width="29" height="29" viewBox="0 0 29 29" fill="none" xmlns="http://www.w3.org/2000/svg">
<path d="M6.33203 7.5H8.66536M14.6154 22.6667L12.2587 20.3333M14.6154 22.6667L12.2587 25M14.6154 22.6667C8.7237 22.6667 3.77703 20.3333 2.83203 18M18.1515 22.3995C22.201 21.7695 25.309 20.0883 26.1654 18M8.66536 4H20.332C22.5137 4 23.6034 4 24.4154 4.469C24.9474 4.77618 25.3892 5.21798 25.6964 5.75C26.1654 6.562 26.1654 7.65167 26.1654 9.83333C26.1654 12.015 26.1654 13.1047 25.6964 13.9167C25.3892 14.4487 24.9474 14.8905 24.4154 15.1977C23.6034 15.6667 22.5137 15.6667 20.332 15.6667H19.8724C19.0709 15.6667 18.6707 15.6667 18.2962 15.5838C17.7943 15.4724 17.323 15.2517 16.916 14.9375C16.6127 14.7018 16.356 14.395 15.8427 13.779C15.4344 13.289 15.229 13.044 14.9945 12.9332C14.8394 12.8603 14.6701 12.8226 14.4987 12.8226C14.3273 12.8226 14.158 12.8603 14.0029 12.9332C13.7684 13.0428 13.5642 13.2878 13.1547 13.779C12.6414 14.395 12.3847 14.7018 12.0814 14.9375C11.6744 15.2517 11.2031 15.4724 10.7012 15.5838C10.3279 15.6667 9.92653 15.6667 9.12503 15.6667H8.66536C6.4837 15.6667 5.39403 15.6667 4.58203 15.1977C4.05001 14.8905 3.60821 14.4487 3.30103 13.9167C2.83203 13.1047 2.83203 12.015 2.83203 9.83333C2.83203 7.65167 2.83203 6.562 3.30103 5.75C3.60821 5.21798 4.05001 4.77618 4.58203 4.469C5.39403 4 6.4837 4 8.66536 4Z" stroke="#11152A" stroke-width="1.5" stroke-linecap="round" stroke-linejoin="round"/>
</svg>
